# xmcd
#
# Track frame offsets:
#	183
#	13008
#	28670
#	36925
#	46060
#	58685
#	68695
#	80558
#	93930
#	106040
#	117158
#	129108
#
# Disc length: 1880 seconds
#
# Revision: 2
# Processed by: cddbd v1.4PL0 Copyright (c) Steve Scherf et al.
# Submitted via: CDmax 2.0
#
DISCID=8c07560c
DTITLE=Dinah Washington - The Fats Waller Songbook
DYEAR=1984
DGENRE=Blues
TTITLE0=Christopher Columbus
TTITLE1=T'ain't Nobody's Biz-ness If I Do
TTITLE2=Jitterbug Waltz
TTITLE3=Somone's Rocking My Dreamboat
TTITLE4=Ain't Cha Glad
TTITLE5=Squeeze Me
TTITLE6=Ain't Misbehavin'
TTITLE7=Black and Blue
TTITLE8=Everybody Loves My Baby
TTITLE9=I've Got a Feeling I'm Falling
TTITLE10=Honeysuckle Rose
TTITLE11=Keepin' Out of Mischief Now
EXTD=LABEL =Polygram Records, Inc.\nID =818930-2\nUPC =042281-893025\nCOPY
EXTD=RIGHT =1984
EXTT0=
EXTT1=
EXTT2=
EXTT3=
EXTT4=
EXTT5=
EXTT6=
EXTT7=
EXTT8=
EXTT9=
EXTT10=
EXTT11=
PLAYORDER=
